<svg width="150" height="25" viewBox="0 0 150 25" fill="none" xmlns="http://www.w3.org/2000/svg">
<g clip-path="url(#clip0_3613_31935)">
<path d="M51.84 17.7255C49.7925 17.7255 48.1575 17.13 46.9335 15.9405C45.7095 14.751 45.099 13.2075 45.099 11.31C45.099 9.429 45.7185 7.88101 46.959 6.66601C48.1995 5.451 49.8255 4.84351 51.84 4.84351C53.871 4.84351 55.506 5.451 56.745 6.66601C57.9855 7.88101 58.605 9.429 58.605 11.31C58.605 13.2075 57.993 14.751 56.7705 15.9405C55.548 17.13 53.904 17.7255 51.84 17.7255ZM51.84 14.5305C52.872 14.5305 53.6505 14.2185 54.174 13.5945C54.6975 12.9705 54.96 12.2085 54.96 11.31C54.96 10.4445 54.693 9.687 54.1605 9.0375C53.628 8.388 52.854 8.06401 51.8385 8.06401C50.8395 8.06401 50.0745 8.388 49.542 9.0375C49.0095 9.687 48.7425 10.4445 48.7425 11.31C48.7425 12.1755 49.005 12.9285 49.5285 13.569C50.055 14.2095 50.8245 14.5305 51.84 14.5305Z" fill="#130033"/>
<path d="M66.8731 17.7255C64.8256 17.7255 63.1906 17.13 61.9666 15.9405C60.7426 14.751 60.1321 13.2075 60.1321 11.31C60.1321 9.429 60.7516 7.88101 61.9921 6.66601C63.2326 5.451 64.8586 4.84351 66.8731 4.84351C68.9041 4.84351 70.5391 5.451 71.7781 6.66601C73.0186 7.88101 73.6381 9.429 73.6381 11.31C73.6381 13.2075 73.0261 14.751 71.8036 15.9405C70.5811 17.13 68.9371 17.7255 66.8731 17.7255ZM66.8731 14.5305C67.9051 14.5305 68.6836 14.2185 69.2071 13.5945C69.7306 12.9705 69.9931 12.2085 69.9931 11.31C69.9931 10.4445 69.7261 9.687 69.1936 9.0375C68.6611 8.388 67.8871 8.06401 66.8716 8.06401C65.8726 8.06401 65.1076 8.388 64.5751 9.0375C64.0426 9.687 63.7756 10.4445 63.7756 11.31C63.7756 12.1755 64.0381 12.9285 64.5616 13.569C65.0881 14.2095 65.8576 14.5305 66.8731 14.5305Z" fill="#130033"/>
<path d="M85.2135 0H88.833V17.451H85.6125L85.3875 15.8775C84.456 17.076 83.091 17.6745 81.2925 17.6745C79.4775 17.6745 78.009 17.088 76.8855 15.915C75.762 14.742 75.201 13.1985 75.201 11.2845C75.201 9.321 75.7665 7.761 76.899 6.603C78.03 5.4465 79.512 4.8675 81.3435 4.8675C82.974 4.8675 84.264 5.4495 85.2135 6.615V0ZM81.843 8.1135C80.9265 8.1135 80.1945 8.409 79.6455 9C79.0965 9.591 78.822 10.353 78.822 11.2845C78.822 12.1995 79.092 12.957 79.6335 13.557C80.1735 14.1555 80.91 14.4555 81.843 14.4555C82.758 14.4555 83.5395 14.1975 84.189 13.6815C84.8385 13.1655 85.1625 12.3675 85.1625 11.2845C85.1625 10.3035 84.8295 9.528 84.1636 8.9625C83.4991 8.397 82.725 8.1135 81.843 8.1135Z" fill="#130033"/>
<path d="M100.788 6.36613L99.015 8.61313C98.166 8.01463 97.1925 7.71463 96.0945 7.71463C95.529 7.71463 95.091 7.80613 94.7835 7.98913C94.4745 8.17213 94.3215 8.42263 94.3215 8.73763C94.3215 9.42013 94.929 9.77713 96.144 9.81163C96.693 9.82813 97.188 9.86563 97.629 9.92413C98.07 9.98263 98.544 10.0996 99.0525 10.2736C99.5595 10.4491 99.9795 10.6696 100.314 10.9351C100.647 11.2006 100.929 11.5801 101.163 12.0706C101.396 12.5626 101.512 13.1311 101.512 13.7806C101.529 14.9131 101.088 15.8866 100.19 16.7011C99.291 17.5171 97.935 17.9251 96.12 17.9251C93.939 17.9251 92.0085 17.2261 90.3285 15.8281L91.8765 13.2811C93.0915 14.2801 94.5225 14.7961 96.171 14.8291C96.7035 14.8456 97.149 14.7541 97.506 14.5546C97.863 14.3551 98.034 14.0971 98.0175 13.7806C98.0175 13.0981 97.3185 12.7321 95.9205 12.6811C95.304 12.6481 94.71 12.5611 94.1355 12.4186C93.561 12.2776 93.012 12.0616 92.4885 11.7691C91.965 11.4781 91.5435 11.0701 91.227 10.5451C90.9105 10.0216 90.753 9.41713 90.753 8.73463C90.753 7.42063 91.269 6.42913 92.301 5.76463C93.333 5.10013 94.59 4.76562 96.0705 4.76562C97.983 4.76863 99.555 5.30113 100.788 6.36613Z" fill="#130033"/>
<path d="M103.345 2.14802L106.941 1.74902V5.19452H110.062V8.19002H106.917V12.834C106.917 13.932 107.382 14.4825 108.315 14.4825C108.913 14.4825 109.413 14.382 109.813 14.1825L110.637 17.178C109.821 17.4945 108.955 17.6775 108.04 17.727C106.593 17.793 105.448 17.448 104.607 16.6905C103.767 15.933 103.347 14.6475 103.347 12.8325V8.18852V5.19302V2.14802H103.345Z" fill="#130033"/>
<path d="M121.127 6.54165L121.251 5.11814H124.622V17.4511H121.376L121.176 15.9031C120.792 16.5031 120.24 16.9516 119.516 17.2516C118.791 17.5516 118.08 17.7091 117.381 17.7256C115.5 17.7421 113.969 17.1721 112.788 16.0156C111.606 14.8591 111.015 13.2811 111.015 11.2846C111.015 9.28665 111.627 7.70715 112.85 6.54165C114.074 5.37765 115.617 4.81065 117.48 4.84365C118.28 4.84365 119.007 4.99365 119.664 5.29365C120.324 5.59215 120.81 6.00915 121.127 6.54165ZM117.857 8.01464C116.925 8.01464 116.15 8.31014 115.535 8.90114C114.918 9.49214 114.611 10.2871 114.611 11.2861C114.611 12.2851 114.918 13.0756 115.535 13.6576C116.15 14.2411 116.924 14.5321 117.857 14.5321C118.821 14.5321 119.609 14.2171 120.216 13.5841C120.824 12.9511 121.128 12.2281 121.128 11.4121C121.128 10.4626 120.84 9.66014 120.267 9.00314C119.691 8.34314 118.889 8.01464 117.857 8.01464Z" fill="#130033"/>
<path d="M135.485 13.482L137.757 15.8295C136.475 17.094 134.87 17.727 132.939 17.727C131.009 17.727 129.402 17.187 128.121 16.104C126.839 15.0225 126.198 13.425 126.198 11.31C126.198 9.312 126.848 7.73551 128.145 6.57901C129.444 5.42251 131.033 4.84351 132.914 4.84351C134.811 4.84351 136.301 5.40901 137.382 6.54151L135.386 8.81401C134.753 8.33101 133.979 8.0895 133.064 8.0895C132.131 8.0895 131.357 8.37601 130.742 8.95051C130.125 9.52501 129.818 10.311 129.818 11.31C129.818 12.258 130.125 13.0125 130.742 13.569C131.357 14.127 132.107 14.406 132.989 14.406C133.421 14.406 133.875 14.3235 134.349 14.157C134.823 13.989 135.203 13.7655 135.485 13.482Z" fill="#130033"/>
<path d="M147.076 11.298C148.86 9.83846 150 7.62296 150 5.14347H146.404C146.404 7.23746 144.918 8.99096 142.947 9.40646V0.00146484H139.351V17.4525H142.947V13.1895C144.919 13.605 146.404 15.3585 146.404 17.4525H150C150 14.973 148.86 12.756 147.076 11.298Z" fill="#130033"/>
<path d="M40.8915 15.4034C42.606 14.5214 43.488 13.0814 43.5375 11.0834C43.581 9.95842 43.2585 8.90992 42.57 7.93792H43.5405V4.74292H36.936V4.74592C35.115 4.75792 33.561 5.30542 32.2785 6.39142C30.9795 7.48942 30.3315 9.03742 30.3315 11.0354C30.3315 12.9329 30.9345 14.4434 32.142 15.5669C33.348 16.6904 34.9665 17.2514 36.9975 17.2514C38.994 17.2514 39.993 17.9579 39.993 19.3739C39.993 20.1059 39.6975 20.6684 39.1065 21.0599C38.5155 21.4514 37.7955 21.6464 36.9465 21.6464C34.9995 21.6464 33.9675 20.8139 33.8505 19.1504H30.5055C30.4725 20.9474 31.008 22.3409 32.115 23.3324C33.222 24.3224 34.8315 24.8174 36.9465 24.8174C38.7765 24.8174 40.35 24.3434 41.6655 23.3939C42.9795 22.4459 43.638 21.1049 43.638 19.3739C43.6365 17.5424 42.7215 16.2194 40.8915 15.4034ZM39.1935 13.2074C38.5935 13.7234 37.8615 13.9814 36.996 13.9814C36.081 13.9814 35.319 13.7114 34.7115 13.1699C34.104 12.6299 33.801 11.9174 33.801 11.0354C33.801 10.0694 34.0965 9.31192 34.6875 8.76292C35.2785 8.21392 36.048 7.93942 36.9975 7.93942C37.8795 7.93942 38.616 8.23942 39.207 8.83792C39.798 9.43642 40.0935 10.1699 40.0935 11.0354C40.092 11.9669 39.792 12.6914 39.1935 13.2074Z" fill="#130033"/>
<path d="M10.11 10.11C4.5345 10.11 0 5.574 0 0H4.902C4.902 2.8725 7.239 5.208 10.11 5.208C12.9825 5.208 15.318 2.871 15.318 0H20.22C20.22 5.5755 15.6855 10.11 10.11 10.11Z" fill="#8B4AFF"/>
<path d="M20.22 12.561H0V17.463H20.22V12.561Z" fill="#8B4AFF"/>
<path d="M20.22 19.9141H0V24.8161H20.22V19.9141Z" fill="#8B4AFF"/>
</g>
<defs>
<clipPath id="clip0_3613_31935">
<rect width="150" height="24.8175" fill="white"/>
</clipPath>
</defs>
</svg>
