<svg width="250" height="250" viewBox="0 0 250 250" fill="none" xmlns="http://www.w3.org/2000/svg">
<g id="Frame">
<g id="Group">
<g id="Group_2">
<path id="Vector" d="M63.0873 150.7C63.3856 150.7 63.6718 150.581 63.8828 150.37C64.0937 150.159 64.2123 149.873 64.2123 149.575C64.2123 149.276 64.0937 148.99 63.8828 148.779C63.6718 148.568 63.3856 148.45 63.0873 148.45C62.7889 148.45 62.5028 148.568 62.2918 148.779C62.0808 148.99 61.9623 149.276 61.9623 149.575C61.9623 149.873 62.0808 150.159 62.2918 150.37C62.5028 150.581 62.7889 150.7 63.0873 150.7ZM71.7123 145.537C71.7363 145.377 71.7256 145.214 71.6807 145.058C71.6359 144.903 71.558 144.759 71.4523 144.636C71.3467 144.513 71.2159 144.415 71.0688 144.347C70.9216 144.28 70.7616 144.245 70.5998 144.245C70.4379 144.245 70.2779 144.28 70.1308 144.347C69.9837 144.415 69.8528 144.513 69.7472 144.636C69.6416 144.759 69.5637 144.903 69.5188 145.058C69.474 145.214 69.4632 145.377 69.4873 145.537C69.4632 145.697 69.474 145.861 69.5188 146.016C69.5637 146.172 69.6416 146.316 69.7472 146.438C69.8528 146.561 69.9837 146.659 70.1308 146.727C70.2779 146.794 70.4379 146.829 70.5998 146.829C70.7616 146.829 70.9216 146.794 71.0688 146.727C71.2159 146.659 71.3467 146.561 71.4523 146.438C71.558 146.316 71.6359 146.172 71.6807 146.016C71.7256 145.861 71.7363 145.697 71.7123 145.537ZM52.4998 147.175C52.8623 147.175 54.0373 146.375 54.0623 146.012C54.0873 145.65 52.8123 144.25 52.4998 144.237C51.9084 144.49 51.3918 144.89 50.9998 145.4C50.9623 145.837 52.2123 147.137 52.4998 147.175ZM44.1748 87.0746C44.2417 87.6467 44.3759 88.2089 44.5748 88.7496C44.6349 88.8093 44.7096 88.8524 44.7915 88.8745C44.8734 88.8965 44.9597 88.8968 45.0417 88.8754C45.1238 88.8539 45.1988 88.8114 45.2594 88.7521C45.32 88.6928 45.3641 88.6187 45.3873 88.5371C45.4623 88.2496 44.8248 87.0621 44.7623 86.8746C44.7292 86.8056 44.672 86.7511 44.6015 86.7215C44.531 86.6919 44.4521 86.6891 44.3797 86.7137C44.3073 86.7384 44.2465 86.7887 44.2087 86.8552C44.1709 86.9217 44.1589 86.9998 44.1748 87.0746ZM43.4498 87.6371C43.4498 87.2871 43.7623 86.1496 44.4373 85.9871C44.5355 85.9471 44.6185 85.8768 44.6743 85.7865C44.73 85.6961 44.7555 85.5904 44.7471 85.4846C44.7388 85.3789 44.697 85.2785 44.6278 85.198C44.5586 85.1175 44.4656 85.0612 44.3623 85.0371C44.2378 84.9877 44.0992 84.9877 43.9748 85.0371C43.5661 85.3272 43.2457 85.725 43.0494 86.1861C42.853 86.6473 42.7882 87.1538 42.8623 87.6496C42.8777 87.7169 42.9158 87.7768 42.9702 87.8193C43.0247 87.8618 43.0921 87.8841 43.1611 87.8827C43.2301 87.8812 43.2965 87.856 43.3491 87.8112C43.4017 87.7665 43.4373 87.705 43.4498 87.6371ZM86.2498 23.5996C89.8429 21.0977 94.1423 19.8111 98.5191 19.9281C102.896 20.045 107.12 21.5593 110.575 24.2496C111.087 24.6746 111.825 23.9121 111.262 23.4746C107.698 20.4435 103.224 18.6903 98.5493 18.4932C93.8749 18.2962 89.2687 19.6667 85.4623 22.3871C84.7498 22.9496 85.4998 24.1496 86.2498 23.5996ZM102.9 29.3746C97.0873 29.2246 89.6123 31.4371 86.1373 37.8496C86.0905 37.9316 86.0603 38.0221 86.0485 38.1159C86.0367 38.2096 86.0435 38.3047 86.0684 38.3959C86.0934 38.487 86.136 38.5723 86.194 38.6469C86.2519 38.7215 86.3239 38.784 86.406 38.8308C86.4881 38.8776 86.5786 38.9078 86.6723 38.9196C86.7661 38.9314 86.8612 38.9246 86.9523 38.8997C87.0434 38.8747 87.1287 38.8321 87.2034 38.7741C87.278 38.7162 87.3405 38.6441 87.3873 38.5621C89.3856 35.4812 92.3685 33.1681 95.8498 31.9996C100.975 30.1621 110.287 30.3746 115.437 33.6246C115.558 33.7025 115.705 33.7291 115.846 33.6986C115.987 33.6682 116.109 33.5831 116.187 33.4621C116.265 33.3411 116.292 33.1941 116.261 33.0534C116.231 32.9128 116.146 32.79 116.025 32.7121C112.762 30.6121 108.6 29.5246 102.9 29.3746ZM142.85 147.5C139.303 147.663 135.798 146.677 132.857 144.688C129.915 142.699 127.695 139.814 126.525 136.462C126.451 136.279 126.311 136.13 126.133 136.044C125.955 135.959 125.751 135.944 125.562 136.003C125.373 136.061 125.213 136.188 125.113 136.359C125.014 136.53 124.982 136.732 125.025 136.925C126.24 140.605 128.676 143.759 131.929 145.867C135.182 147.974 139.057 148.907 142.912 148.512C143.033 148.487 143.14 148.419 143.215 148.321C143.29 148.223 143.327 148.102 143.319 147.979C143.312 147.856 143.26 147.74 143.174 147.652C143.088 147.564 142.973 147.51 142.85 147.5ZM129.175 123.3C128.425 129.662 135.55 139.312 147.712 140.362C147.773 140.368 147.834 140.362 147.893 140.344C147.951 140.326 148.005 140.296 148.052 140.258C148.099 140.219 148.138 140.171 148.167 140.117C148.195 140.063 148.213 140.004 148.219 139.943C148.224 139.883 148.218 139.821 148.2 139.763C148.182 139.705 148.153 139.65 148.114 139.603C148.075 139.556 148.027 139.518 147.973 139.489C147.92 139.46 147.861 139.443 147.8 139.437C140.475 138.637 130.437 132.137 130.712 123.362C130.762 122.362 129.287 122.337 129.175 123.3ZM18.3498 136.675C15.2623 135.7 12.3248 139.525 14.4498 142.162C14.944 142.74 15.617 143.136 16.362 143.288C17.1071 143.44 17.8814 143.338 18.5623 143C21.0373 141.6 21.3123 137.612 18.3498 136.675ZM18.1248 142.237C17.6848 142.439 17.1935 142.501 16.7171 142.415C16.2408 142.328 15.8025 142.098 15.4616 141.754C15.1206 141.41 14.8935 140.97 14.8109 140.493C14.7283 140.016 14.7942 139.525 14.9998 139.087C15.2194 138.586 15.588 138.165 16.0555 137.881C16.5229 137.597 17.0665 137.464 17.6123 137.5C20.0873 137.825 20.0623 141.25 18.1248 142.237ZM188.987 60.9746C189.21 60.9746 189.428 60.9083 189.614 60.7841C189.799 60.6599 189.943 60.4834 190.028 60.2772C190.113 60.0709 190.134 59.844 190.09 59.6255C190.045 59.4069 189.937 59.2065 189.778 59.0496C189.62 58.8928 189.418 58.7867 189.199 58.7447C188.98 58.7027 188.753 58.7268 188.548 58.8138C188.343 58.9009 188.168 59.047 188.046 59.2337C187.924 59.4203 187.86 59.6391 187.862 59.8621C187.866 60.1583 187.986 60.4412 188.196 60.6495C188.407 60.8578 188.691 60.9746 188.987 60.9746ZM193.312 60.9746C193.469 60.9912 193.628 60.9746 193.778 60.926C193.928 60.8773 194.066 60.7976 194.183 60.6921C194.3 60.5866 194.394 60.4577 194.458 60.3136C194.523 60.1695 194.556 60.0135 194.556 59.8558C194.556 59.6981 194.523 59.5421 194.458 59.3981C194.394 59.254 194.3 59.125 194.183 59.0195C194.066 58.914 193.928 58.8344 193.778 58.7857C193.628 58.737 193.469 58.7205 193.312 58.7371C193.155 58.7205 192.997 58.737 192.847 58.7857C192.697 58.8344 192.559 58.914 192.441 59.0195C192.324 59.125 192.23 59.254 192.166 59.3981C192.102 59.5421 192.069 59.6981 192.069 59.8558C192.069 60.0135 192.102 60.1695 192.166 60.3136C192.23 60.4577 192.324 60.5866 192.441 60.6921C192.559 60.7976 192.697 60.8773 192.847 60.926C192.997 60.9746 193.155 60.9912 193.312 60.9746ZM197.637 60.9746C197.794 60.9912 197.953 60.9746 198.103 60.926C198.253 60.8773 198.391 60.7976 198.508 60.6921C198.625 60.5866 198.719 60.4577 198.783 60.3136C198.848 60.1695 198.881 60.0135 198.881 59.8558C198.881 59.6981 198.848 59.5421 198.783 59.3981C198.719 59.254 198.625 59.125 198.508 59.0195C198.391 58.914 198.253 58.8344 198.103 58.7857C197.953 58.737 197.794 58.7205 197.637 58.7371C197.48 58.7205 197.322 58.737 197.172 58.7857C197.022 58.8344 196.884 58.914 196.766 59.0195C196.649 59.125 196.555 59.254 196.491 59.3981C196.427 59.5421 196.394 59.6981 196.394 59.8558C196.394 60.0135 196.427 60.1695 196.491 60.3136C196.555 60.4577 196.649 60.5866 196.766 60.6921C196.884 60.7976 197.022 60.8773 197.172 60.926C197.322 60.9746 197.48 60.9912 197.637 60.9746Z" fill="black"/>
<path id="Vector_2" d="M243.9 225.925C241.8 222.425 218.613 183.113 218.388 182.725C217.959 181.875 217.357 181.125 216.621 180.522C215.884 179.919 215.03 179.477 214.113 179.225C214.814 178.638 215.359 177.886 215.7 177.038C216.226 175.53 216.418 173.926 216.263 172.338C216.263 172 215.263 49.9625 215.263 49.6625C215.41 48.435 215.118 47.1948 214.438 46.1625C213.861 45.618 213.181 45.1948 212.439 44.9178C211.696 44.6408 210.905 44.5157 210.113 44.55C208.588 44.4375 146.363 46.1875 127.138 46.7375L127.363 43.55C127.366 43.5141 127.358 43.478 127.34 43.4467C127.322 43.4153 127.295 43.3903 127.263 43.375L120.475 40.125C120.439 40.0986 120.395 40.0844 120.35 40.0844C120.305 40.0844 120.261 40.0986 120.225 40.125L116.775 45.425C114.059 44.6958 111.246 44.3964 108.438 44.5375L104.05 39.1375C104.019 39.1142 103.982 39.1016 103.944 39.1016C103.905 39.1016 103.868 39.1142 103.838 39.1375L97.1625 41.6375C97.1219 41.6515 97.0874 41.679 97.0646 41.7154C97.0419 41.7518 97.0323 41.7949 97.0375 41.8375L97.5 47C88.475 47 40 47.8875 39.0375 48C36.85 48.2625 35.6625 50.5 35.475 52.45C35.3875 53.7 36.0125 78.775 36.0625 80.8125C34.4535 81.5989 33.0819 82.798 32.0875 84.2875C31.342 85.6959 31.042 87.2975 31.2273 88.8802C31.4125 90.4629 32.0744 91.9519 33.125 93.15C32.6375 95.0625 33.4 96 34.8875 97.6125C35.7225 98.5935 36.2908 99.7731 36.5375 101.038C36.1625 101.188 35.7875 101.338 35.425 101.513C34.8827 101.823 34.4629 102.31 34.2355 102.892C34.0081 103.474 33.9868 104.117 34.175 104.713L33.9 105.013C33.18 105.097 32.4959 105.373 31.9196 105.813C31.3433 106.253 30.8962 106.84 30.625 107.513C26.9334 111.265 24.3769 115.983 23.25 121.125C22.89 122.594 22.7012 124.1 22.6875 125.613C15.975 130.875 9.175 136.863 8.75 142.4C8.4375 146.313 11 149.663 14.9375 149.663C17.4375 149.473 19.8493 148.656 21.95 147.288C25.4875 145.275 32.15 140.363 34.2625 138.763C34.6051 139.76 35.0892 140.703 35.7 141.563C35.9125 147.95 36.1 167.813 35.975 171.075C35.7 176.075 36.8 179.238 39.325 180.888C37.1029 181.516 35.1349 182.828 33.7 184.638C32.675 185.888 6.05 226.05 6.0625 226.175C6.2272 227.336 6.68723 228.436 7.39855 229.368C8.10988 230.3 9.04866 231.034 10.125 231.5H239.013C240.418 230.987 241.649 230.085 242.563 228.9C243.088 228.225 244.113 226.25 243.9 225.925ZM36.9 153.75C37.3017 158.774 38.3435 163.727 40 168.488C41.3625 172.238 42.5 174.5 42.1125 177.588C41.9446 178.624 41.7192 179.651 41.4375 180.663C40.0762 180.227 38.9008 179.346 38.1 178.163C37.1495 176.029 36.758 173.689 36.9625 171.363C37.0625 169.55 37 161.25 36.9 153.75ZM34.25 105.888C35.9438 104.559 37.7801 103.423 39.725 102.5C39.8005 102.468 39.8609 102.408 39.894 102.333C39.9272 102.257 39.9306 102.173 39.9037 102.095C39.8768 102.017 39.8215 101.953 39.7489 101.914C39.6763 101.876 39.5919 101.866 39.5125 101.888C37.9647 102.437 36.4743 103.136 35.0625 103.975C34.9875 102.725 35.4125 102.6 36.6125 102.063C39.3875 100.55 46.8625 100.2 47.35 100.425C47.5212 100.518 47.666 100.652 47.771 100.816C47.8759 100.98 47.9375 101.168 47.95 101.363C44.4218 101.582 40.9838 102.567 37.875 104.25L37.325 104.525C37.2546 104.568 37.2032 104.636 37.1811 104.715C37.159 104.795 37.1679 104.88 37.2061 104.953C37.2442 105.026 37.3087 105.082 37.3865 105.109C37.4643 105.136 37.5495 105.133 37.625 105.1C37.7125 105.1 46.8 100.9 54.425 102.738C55.9162 102.989 57.3808 103.378 58.8 103.9C58.8 104.45 59.0375 106.4 59.1125 107.113C57.3125 107.113 57.1625 107.113 57.0125 106.388C56.9375 106.063 56.775 105.788 56.4375 105.788C55.475 105.788 53.9375 108.288 53.9375 108.75C53.9375 109.213 54.175 109.213 54.7 109.638C55.3561 110.282 56.0813 110.852 56.8625 111.338C56.9497 111.36 57.0408 111.363 57.1292 111.345C57.2175 111.328 57.3008 111.291 57.3728 111.237C57.4448 111.183 57.5038 111.113 57.5453 111.033C57.5868 110.953 57.6098 110.865 57.6125 110.775C58.275 110.963 59.35 111.15 59.7875 111.225C59.6625 114.1 59.625 119.825 59.675 120.85C57.0875 122.1 52.6 120.325 51.075 119.513C51.0056 119.488 50.9299 119.489 50.8612 119.516C50.7925 119.542 50.7352 119.591 50.6994 119.655C50.6636 119.72 50.6515 119.794 50.6654 119.866C50.6792 119.939 50.718 120.004 50.775 120.05C53.5125 121.575 57.025 123.138 60.1125 121.625C60.4831 121.766 60.8691 121.863 61.2625 121.913C61.3375 122.188 65.0125 135.313 65.625 137.55C63.4625 138.6 56.8 141.713 54.225 142.825C53.9694 142.536 53.6415 142.32 53.275 142.2C48.275 134.55 38.1875 122.775 34.9625 113.45C34.3 111.375 32.6625 107.5 34.25 105.888ZM37.575 95.125C37.6875 94.475 37.8 93.8 37.8375 93.7C37.8493 93.6687 37.8525 93.6348 37.8468 93.6018C37.8411 93.5688 37.8266 93.5379 37.8049 93.5124C37.7833 93.4869 37.7551 93.4676 37.7235 93.4567C37.6918 93.4457 37.6578 93.4434 37.625 93.45C37.2655 93.5637 36.8815 93.576 36.5154 93.4856C36.1493 93.3952 35.8153 93.2055 35.55 92.9375C35.3844 92.7227 35.2743 92.4703 35.2294 92.2028C35.1846 91.9353 35.2064 91.6608 35.2929 91.4038C35.3794 91.1467 35.528 90.9149 35.7255 90.7289C35.9229 90.5429 36.1632 90.4085 36.425 90.3375C36.8667 90.3293 37.3033 90.4326 37.6945 90.638C38.0856 90.8434 38.4186 91.1442 38.6625 91.5125C38.6772 91.5356 38.6976 91.5546 38.7216 91.5677C38.7457 91.5808 38.7726 91.5876 38.8 91.5875H40.225C40.2531 91.5881 40.281 91.5823 40.3066 91.5706C40.3322 91.559 40.3548 91.5417 40.3728 91.5201C40.3909 91.4985 40.4038 91.4731 40.4106 91.4458C40.4175 91.4185 40.4181 91.3901 40.4125 91.3625V91.05C40.0227 89.694 39.9883 88.2606 40.3125 86.8875C43.5375 85.55 43.475 83.6875 44.4875 83.5125C44.7472 83.5016 45.006 83.55 45.2442 83.6539C45.4824 83.7579 45.6939 83.9147 45.8625 84.1125C47.1125 85.6375 46.625 86.4875 47.45 87.3875C47.859 87.7859 48.2932 88.1575 48.75 88.5C48.9625 88.65 49 88.6125 48.025 90.375C45.4625 90.1125 46.0875 92.9875 43.6625 92.575C43.6297 92.5684 43.5957 92.5707 43.564 92.5816C43.5324 92.5926 43.5043 92.6119 43.4826 92.6374C43.4609 92.6629 43.4464 92.6938 43.4407 92.7267C43.435 92.7597 43.4382 92.7937 43.45 92.825C43.5901 93.2859 43.8452 93.7035 44.1913 94.0385C44.5374 94.3735 44.9631 94.615 45.4282 94.74C45.8934 94.8651 46.3828 94.8696 46.8502 94.7533C47.3176 94.6369 47.7477 94.4035 48.1 94.075C48.2347 95.1666 48.0313 96.2733 47.5172 97.2457C47.003 98.218 46.203 99.0092 45.225 99.5125C43.2085 99.6376 41.201 99.8797 39.2125 100.238C38.575 100.388 37.9625 100.563 37.35 100.738C37.2114 100.084 37.0148 99.4438 36.7625 98.825C37.1257 97.6138 37.3972 96.377 37.575 95.125ZM112.5 78.85C111.417 78.8146 110.352 78.5652 109.365 78.1162C108.379 77.6672 107.492 77.0274 106.754 76.2338C106.016 75.4402 105.442 74.5084 105.066 73.4922C104.69 72.4759 104.519 71.3953 104.563 70.3125C104.775 58.975 120.225 58.975 120.438 70.3125C120.481 71.3953 120.31 72.4759 119.934 73.4922C119.558 74.5084 118.984 75.4402 118.246 76.2338C117.508 77.0274 116.621 77.6672 115.635 78.1162C114.648 78.5652 113.583 78.8146 112.5 78.85ZM56.8125 110.388C56.25 110 55.0625 108.963 54.775 108.75C55.1518 107.983 55.6499 107.283 56.25 106.675C56.2439 106.796 56.2439 106.917 56.25 107.038C56.327 107.217 56.4451 107.377 56.5949 107.503C56.7447 107.629 56.922 107.718 57.1125 107.763C56.9554 107.875 56.8381 108.034 56.7774 108.218C56.7167 108.401 56.7159 108.599 56.775 108.783C56.834 108.967 56.95 109.128 57.1061 109.242C57.2623 109.356 57.4505 109.417 57.6438 109.417C57.837 109.417 58.0252 109.356 58.1814 109.242C58.3375 109.128 58.4535 108.967 58.5126 108.783C58.5716 108.599 58.5708 108.401 58.5101 108.218C58.4495 108.034 58.3321 107.875 58.175 107.763C58.75 107.763 59.575 107.65 60.675 107.525C60.7269 107.514 60.7736 107.486 60.8076 107.445C60.8416 107.404 60.8609 107.353 60.8625 107.3C60.8545 107.251 60.8305 107.206 60.7944 107.172C60.7582 107.138 60.7118 107.117 60.6625 107.113H59.7375C59.6814 106.013 59.6814 104.912 59.7375 103.813C60.1579 103.667 60.6085 103.633 61.0462 103.711C61.4839 103.79 61.8941 103.98 62.2375 104.263C62.657 104.966 62.845 105.784 62.775 106.6C63.0625 121.925 62.9625 120.925 62.775 120.975C62.0816 121.057 61.381 121.057 60.6875 120.975C60.3 120.388 60.475 113.788 60.3875 111.263C60.929 111.287 61.4714 111.283 62.0125 111.25C62.0821 111.25 62.1489 111.222 62.1981 111.173C62.2474 111.124 62.275 111.057 62.275 110.988C62.275 110.918 62.2474 110.851 62.1981 110.802C62.1489 110.753 62.0821 110.725 62.0125 110.725C60.4501 110.73 58.8998 110.45 57.4375 109.9C57.1 109.75 56.9 110 56.8125 110.388ZM198.75 197.375L217.638 197.138C218.888 199.388 222.975 206.15 224.2 208.175C218.175 208.1 212.025 208.075 205.45 208.05C204.913 207.075 198.988 197.688 198.75 197.375ZM181.113 208.1L158.775 208.225C158.175 204.938 157.525 201.688 156.7 197.863L177.013 197.638C177.775 199.713 180.525 206.613 181.15 208.1H181.113ZM177.75 196.563C176.975 194.288 174.813 187.25 174.225 185.313L189.825 185.175C192.325 188.925 194.75 192.925 196.9 196.425L177.75 196.563ZM197.513 197.388C198.763 199.4 203.138 206.413 204.238 208.05H182.163C181.963 207.475 178.413 198.263 178.113 197.575L197.513 197.388ZM198.138 196.388C196.788 194.188 192.388 187.188 191.025 185.138L210.55 184.938C212.375 187.988 217.113 196.263 217.113 196.263L198.138 196.388ZM78.0375 105.138C80.5375 103.3 83.4 101.063 85.5375 99.3875C86.6607 99.9939 87.6266 100.855 88.358 101.901C89.0894 102.947 89.5661 104.149 89.75 105.413C91.225 113.363 84.5125 121.025 76.625 120.175C75.0944 120.033 73.6184 119.534 72.3158 118.717C71.0132 117.901 69.9203 116.791 69.125 115.475C72.8 112.963 75.3375 109.713 78.075 105.138H78.0375ZM202.638 123.313L197.075 115.675C198.2 114.588 201.913 109.288 202.313 105.55H202.575C202.613 109.213 202.638 115.738 202.675 123.313H202.638ZM202.15 91.8875C202.038 90.45 200.725 84.6125 198.85 82.25L202.063 76C202.138 79.3375 202.375 90.375 202.413 91.975L202.15 91.8875ZM178.75 67.7375L177.963 63.9875L201.863 63.6375C201.863 65.0125 202.013 69.975 202.138 75.5875L195.888 67.525C195.852 67.4907 195.805 67.4714 195.756 67.4714C195.707 67.4714 195.66 67.4907 195.625 67.525L189.838 71.8875C186.486 69.7178 182.703 68.3018 178.75 67.7375ZM192.813 98.5375C193.038 111.038 183.325 121.113 171.663 121.113C160 121.113 150.275 110.988 150.513 98.6125C151.038 68.65 192.213 68.6375 192.775 98.5375H192.813ZM198.713 56.825C201.438 56.75 201.9 59.8375 201.838 62.55C201.838 62.7 203.625 62.625 177.75 62.9875L176.813 58.5375C176.802 58.4956 176.778 58.4583 176.744 58.4312C176.71 58.4042 176.668 58.3888 176.625 58.3875H167.813C167.772 58.3871 167.733 58.3988 167.699 58.4211C167.666 58.4434 167.64 58.4752 167.625 58.5125L166.038 63.15L141.475 63.525L139.888 57.5625C153.663 57.5 198.25 56.825 198.675 56.825H198.713ZM203.9 172.675C203.975 167.425 203.675 117.063 203.588 105.35L209.413 104.425C209.65 126.075 210.15 171.113 210.163 172.613L203.9 172.675ZM117.5 198.288C117.175 200.425 116.113 206.75 115.938 208.613C113.688 208.613 101.838 208.788 97.1875 208.863C97.5 207.4 99.125 198.738 99.1625 198.488L117.5 198.288ZM99.35 197.325C99.8125 194.963 101.063 188.188 101.388 186.375L118.963 186.088C118.688 189.438 118.263 192.963 117.713 197.163L99.35 197.325ZM51.4625 143.975C52.025 143.225 52.7125 142.725 53.4125 143.413C53.9481 144.146 54.3891 144.944 54.725 145.788C54.856 146.225 54.8112 146.696 54.6 147.1C53.85 148.475 51.075 148.038 50.5 146.8C50.5 146.8 50.3625 146.563 50.3625 146.55C50.175 145.713 50.6625 145 51.4625 143.975ZM67 186.475C67.5625 190.225 68.25 193.975 68.975 197.725C65.775 197.725 58.3875 197.913 57.95 197.913C59.6125 195.275 64.3625 188.125 65.45 186.5L67 186.475ZM64.125 175.825L65.8375 177.588C65.95 178.563 66.075 179.575 66.2 180.575C65.4 180.575 61.2 180.725 58.2 180.875C58.65 179.35 59.075 177.75 59.45 176.088L64.125 175.825ZM66.3125 181.625C66.475 182.875 66.65 184.125 66.8375 185.375H56.7125C57.125 184.225 57.525 183.038 57.9625 181.825C64.125 181.563 63.75 181.675 66.3125 181.65V181.625ZM64.375 186.513C61.7625 190.088 59.2 193.925 56.7375 197.938L50.7125 198.038C52.8885 194.324 54.7613 190.44 56.3125 186.425C59.05 186.513 63.0375 186.538 64.375 186.538V186.513ZM53.0125 148.75C53.5875 150 58.1875 158.1 59.475 159.763C60.2091 160.737 61.1005 161.582 62.1125 162.263C62.1857 162.29 62.2663 162.292 62.3404 162.267C62.4146 162.242 62.4778 162.192 62.5192 162.125C62.5605 162.059 62.5775 161.98 62.5672 161.903C62.5568 161.825 62.5198 161.753 62.4625 161.7C61.3533 160.9 60.4037 159.899 59.6625 158.75C58.9125 157.675 54.75 150.175 53.9875 148.75C54.637 148.538 55.1847 148.092 55.525 147.5C55.6512 147.445 55.7874 147.417 55.925 147.417C56.0627 147.417 56.1988 147.445 56.325 147.5C58.6375 148.325 63.425 154.338 65.5125 159.9C65.9772 160.839 66.0752 161.918 65.7875 162.925C65.7875 163.013 65.6875 163.075 65.65 163.15C64.5465 163.618 63.3334 163.765 62.15 163.575C60.35 163.2 59.0875 161.938 56.5375 157.925C54.6258 154.909 52.8856 151.787 51.325 148.575C51.8784 148.701 52.445 148.76 53.0125 148.75ZM66.825 162.6C66.9671 161.269 66.6873 159.926 66.025 158.763C65.1652 156.671 64.0929 154.673 62.825 152.8C66.4139 151.349 69.8513 149.549 73.0875 147.425C74.207 148.829 75.1906 150.335 76.025 151.925C76.353 152.676 76.5223 153.487 76.5223 154.306C76.5223 155.126 76.353 155.936 76.025 156.688C74.2994 158.161 72.4463 159.479 70.4875 160.625C69.15 161.45 67.9375 162.138 66.825 162.65V162.6ZM59.6625 175.175C59.8625 174.25 59.95 174.15 59.8375 174.038C54.5 168.538 47.925 162.9 43.475 153.325C42.925 151.9 44.3875 151.463 44.9375 152.863C49.225 160.925 52.8125 164.213 63.25 174.9L59.6625 175.175ZM57.3125 198.925L69.1875 198.813C69.8915 202.272 70.6751 205.714 71.5375 209.138C66.5375 209.063 54.675 209 51.5375 209.038C52.5 207.375 56.65 200.113 57.3125 198.975V198.925ZM83.1375 198.588C87.975 198.588 98.1375 198.45 98.1375 198.45C98.0125 199.075 96.375 207.538 96.175 208.825C92.075 208.825 87.425 208.95 82.5375 209.05C82.8125 205.088 83.025 201.638 83.1375 198.638V198.588ZM98.3875 197.338C93.25 197.338 88.2125 197.45 83.1875 197.538C83.3125 194.188 83.3375 189.975 83.3 186.713C87.6375 186.713 99.7625 186.4 100.488 186.388C99.775 190 99.0875 193.625 98.3875 197.338ZM65.575 140.6C66.1769 140.398 66.8151 140.326 67.4469 140.391C68.0786 140.456 68.6891 140.655 69.2375 140.975C70.6875 141.688 72.7875 145.538 73.075 146.188C69.8039 148.667 66.2185 150.701 62.4125 152.238C61.5125 150.988 57.4125 146.325 55.6875 146.425C55.7071 146.117 55.6558 145.81 55.5375 145.525C57.675 144.55 63.3625 141.75 65.575 140.6ZM56.1125 198.988C54.8625 201.05 51.0375 207.825 50.4875 209.1L43.4 209.238C45.7875 205.838 48.0625 202.513 50.1375 199.025L56.1125 198.988ZM79.6125 212.638C78.9419 213.108 78.166 213.406 77.353 213.507C76.54 213.607 75.7148 213.506 74.95 213.213C74.95 212.925 74.7875 212.075 74.725 211.663C76.6136 211.784 78.5063 211.498 80.275 210.825C80.275 211.125 80.35 211.838 80.35 212.2C80.0883 212.317 79.8408 212.464 79.6125 212.638ZM136.25 198.088C136.538 200.1 137.75 206.838 138.1 208.388C131.25 208.388 124.35 208.513 116.85 208.6C117.238 206.75 118.325 199.525 118.5 198.275L136.25 198.088ZM157.863 208.238L139.113 208.375C138.95 207.3 137.363 198.613 137.275 198.075L155.688 197.888C156.088 199.875 157.425 206.25 157.875 208.238H157.863ZM137.125 196.988C136.975 196.988 136.225 186.913 136.175 185.825L153.113 185.563C153.388 186.938 155.113 195.288 155.425 196.813C149.338 196.838 143.238 196.938 137.138 196.963L137.125 196.988ZM156.488 196.8C156 194.513 154.55 187.588 154.125 185.55L173.225 185.3C174.475 189.825 175.575 193.325 176.675 196.55L156.488 196.8ZM118.65 197.175C118.95 194.863 119.625 188.013 119.775 186.1L135.163 185.85C135.325 189.6 135.638 193.35 136.1 197L118.65 197.175ZM138.75 87.5C138.796 87.5078 138.844 87.498 138.883 87.4725C138.922 87.4471 138.951 87.4078 138.963 87.3625L140.663 80.2375C140.663 80.0625 141.013 80.375 136.013 76.3C136.621 73.2941 136.773 70.2136 136.463 67.1625L140.7 64.45C146.475 64.3875 155.863 64.2625 165.7 64.125L164.75 66.8875C160.275 67.05 155.738 69.9375 154.6 70.825L147.1 66.075C147.065 66.0466 147.02 66.0311 146.975 66.0311C146.93 66.0311 146.885 66.0466 146.85 66.075L141.25 73.175C141.224 73.2065 141.209 73.2464 141.209 73.2875C141.209 73.3287 141.224 73.3685 141.25 73.4L145.45 79.65C142.95 82.7125 141.438 89.25 141.238 90.825L132.213 92.3375C132.171 92.3436 132.132 92.3647 132.105 92.3968C132.077 92.429 132.062 92.4701 132.063 92.5125L131.25 101.538C131.245 101.58 131.254 101.623 131.277 101.66C131.3 101.696 131.334 101.724 131.375 101.738L140 104.4C139.688 108.15 143.75 113.838 144.85 115.063L140.05 122.225C140.024 122.257 140.009 122.296 140.009 122.338C140.009 122.379 140.024 122.418 140.05 122.45L146.375 129.95C146.411 129.976 146.455 129.991 146.5 129.991C146.545 129.991 146.589 129.976 146.625 129.95L154.513 125.113C155.638 126.038 160.838 128.95 164.663 129.163L165.5 137.65C165.506 137.693 165.526 137.733 165.558 137.763C165.59 137.792 165.632 137.81 165.675 137.813L177.325 138.5C177.373 138.5 177.419 138.482 177.453 138.45C177.488 138.417 177.509 138.373 177.513 138.325C177.65 135.538 177.788 132.738 177.938 129.95C179.463 129.7 185.538 128.25 187.938 126.2L195 131.2C195.034 131.231 195.079 131.248 195.125 131.248C195.171 131.248 195.216 131.231 195.25 131.2L202.675 123.75C202.775 142.913 202.963 168.563 203.05 172.713C189.375 172.875 104.3 174.213 82.675 174.638C82.4945 172.685 82.1601 170.75 81.675 168.85C80.6139 164.688 79.0876 160.658 77.125 156.838C77.6434 155.221 77.5409 153.47 76.8375 151.925C75.9666 150.185 74.9328 148.532 73.75 146.988C73.9215 146.875 74.0471 146.705 74.1044 146.508C74.1616 146.311 74.1468 146.1 74.0625 145.913C73.8375 145.475 71.8375 141.663 70.0125 140.288C68.9878 139.535 67.708 139.216 66.45 139.4C66.5016 138.753 66.4679 138.101 66.35 137.463C65.975 136.988 67.6 140.8 62.0625 121.913H62.85C63.5125 121.913 63.775 121.65 63.8 120.988V118.488L65.15 117.888L66.4 119.725L63.25 124.238C63.2193 124.272 63.2023 124.316 63.2023 124.363C63.2023 124.409 63.2193 124.453 63.25 124.488L67.5 127.963C67.5351 127.997 67.5822 128.016 67.6313 128.016C67.6803 128.016 67.7275 127.997 67.7625 127.963L70.9625 124C72.7328 125.045 74.7335 125.638 76.7875 125.725L77.7 129.975C77.7112 130.016 77.7358 130.051 77.7699 130.076C77.8039 130.101 77.8454 130.114 77.8875 130.113L83.8875 129.838C83.9122 129.836 83.9362 129.829 83.9584 129.819C83.9805 129.808 84.0003 129.792 84.0166 129.774C84.0328 129.755 84.0453 129.734 84.0531 129.71C84.061 129.687 84.0642 129.662 84.0625 129.638L83.9375 124.638C86.277 124.083 88.4499 122.977 90.275 121.413L93.65 123.663C93.6863 123.689 93.7301 123.703 93.775 123.703C93.8199 123.703 93.8637 123.689 93.9 123.663L97.4625 119.613C97.4969 119.577 97.5161 119.53 97.5161 119.481C97.5161 119.432 97.4969 119.385 97.4625 119.35L93.85 115.6C95.0849 113.971 95.8462 112.034 96.05 110L100 108.175C100.035 108.158 100.064 108.131 100.084 108.098C100.104 108.065 100.114 108.026 100.113 107.988L99.7125 101.95C99.7093 101.902 99.6882 101.858 99.6534 101.825C99.6185 101.793 99.5726 101.775 99.525 101.775H95.65C95.275 100.688 93.7625 97.3625 92.0125 96.1625L92.625 93.9625C93.0875 93.625 95.1875 92.0875 96.0875 91.4625L97.1875 92.35L96.25 98.225C96.243 98.2647 96.2489 98.3055 96.2669 98.3416C96.285 98.3776 96.3141 98.4068 96.35 98.425L102.275 101.388C102.309 101.415 102.35 101.43 102.394 101.43C102.437 101.43 102.479 101.415 102.513 101.388L106.025 96.7C107.638 97.175 113.05 97.95 116.025 97.0375L120 101.688C120.113 101.813 119.775 101.825 126.975 100.088C126.998 100.083 127.02 100.074 127.04 100.061C127.06 100.048 127.076 100.031 127.089 100.011C127.102 99.9908 127.111 99.9685 127.115 99.9452C127.119 99.9219 127.118 99.898 127.113 99.875C126.654 97.4833 126.188 95.0958 125.713 92.7125C126.863 92.0875 131.075 88.6875 131.963 86.4625L138.75 87.5ZM80.6 92.85C80.5789 92.9052 80.578 92.9661 80.5976 93.0219C80.6171 93.0777 80.6558 93.1248 80.7068 93.1548C80.7577 93.1847 80.8177 93.1957 80.8759 93.1857C80.9342 93.1756 80.987 93.1453 81.025 93.1C81.5023 92.2097 81.8716 91.2655 82.125 90.2875C82.14 90.2107 82.1813 90.1414 82.2417 90.0917C82.3021 90.0419 82.378 90.0147 82.4563 90.0147C82.5346 90.0147 82.6104 90.0419 82.6708 90.0917C82.7313 90.1414 82.7725 90.2107 82.7875 90.2875C82.5949 91.292 82.2313 92.256 81.7125 93.1375C81.6375 93.25 81.7125 93.4 81.8875 93.45C81.9489 93.4673 82.0145 93.4615 82.072 93.4339C82.1296 93.4063 82.175 93.3587 82.2 93.3C82.3592 92.6588 82.6438 92.0555 83.0375 91.525C83.3375 91.1875 83.7625 91.525 83.7 92.025C83.6507 92.9819 83.2707 93.8921 82.625 94.6C81.9812 95.1141 81.3676 95.665 80.7875 96.25C80.5695 96.6314 80.4493 97.0609 80.4375 97.5C80 101.25 76.75 105.688 74.7 108.513C73.3187 110.393 71.7434 112.124 70 113.675C68.0632 115.154 65.9668 116.412 63.75 117.425C63.75 114.925 63.6125 107.263 63.5875 106.313L76.25 96.3625C77.7375 95.2125 77.25 94.8375 77.375 92.4875C78.425 93.525 78.4875 93.825 78.8375 93.8125C78.8926 93.8121 78.9469 93.7996 78.9966 93.7758C79.0463 93.7521 79.0901 93.7176 79.125 93.675C79.8581 92.4161 80.4773 91.0942 80.975 89.725C81.425 88.8 81.6875 89.3875 81.6625 89.6C81.4314 90.7198 81.075 91.81 80.6 92.85ZM79.7625 216.763C78.8125 216.763 75.2875 216.763 75.075 216.675C74.632 215.82 74.433 214.86 74.5 213.9C75.4076 214.258 76.3871 214.396 77.3584 214.303C78.3296 214.209 79.2649 213.887 80.0875 213.363C80.6125 213.013 80.8 212.888 81.3375 213.25C81.0875 213.513 80.575 214.075 80.4875 214.15C80.4278 214.172 80.3792 214.216 80.3522 214.273C80.3253 214.331 80.3222 214.397 80.3438 214.456C80.3653 214.516 80.4097 214.565 80.4671 214.592C80.5245 214.619 80.5903 214.622 80.65 214.6C81.1336 214.377 81.5608 214.048 81.9 213.638L82.25 213.875L81.4625 214.75C81.4004 214.769 81.3476 214.81 81.3142 214.866C81.2808 214.922 81.2692 214.988 81.2816 215.051C81.294 215.115 81.3296 215.172 81.3815 215.211C81.4334 215.25 81.4979 215.268 81.5625 215.263C82.0493 215.024 82.4962 214.712 82.8875 214.338L83.225 214.588C82.9375 214.838 82.325 215.35 82.225 215.413C82.1756 215.442 82.1374 215.487 82.1162 215.541C82.095 215.594 82.0919 215.653 82.1076 215.709C82.1232 215.764 82.1566 215.813 82.2027 215.848C82.2488 215.882 82.3049 215.901 82.3625 215.9C82.9018 215.692 83.4073 215.406 83.8625 215.05C84.3389 215.338 84.7618 215.705 85.1125 216.138C83.3438 216.456 81.557 216.665 79.7625 216.763ZM208.9 51.8625C208.9 54.3625 209.038 72.4 209.263 93.8L203.425 92.225C203.275 81.7875 202.888 59.825 202.438 58.475C201.838 56.5375 200.175 55.7125 197.338 55.775L139.588 56.6625L139.45 56.15C139.447 56.1286 139.44 56.1079 139.429 56.0893C139.417 56.0708 139.403 56.0546 139.385 56.0418C139.368 56.029 139.348 56.0198 139.327 56.0147C139.306 56.0097 139.284 56.009 139.263 56.0125L133.013 56.525C132.285 55.2077 131.449 53.9534 130.513 52.775C149.338 52.6125 203.388 51.9375 208.9 51.8625ZM49.0625 94.2125C49.2997 94.3031 49.5536 94.3421 49.807 94.3269C50.0605 94.3117 50.3078 94.2426 50.5326 94.1244C50.7573 94.0061 50.9542 93.8413 51.1102 93.641C51.2663 93.4406 51.3779 93.2093 51.4375 92.9625C51.4451 92.9351 51.4464 92.9064 51.4412 92.8784C51.4361 92.8505 51.4246 92.8241 51.4078 92.8012C51.3909 92.7783 51.3691 92.7596 51.3439 92.7464C51.3187 92.7332 51.2909 92.7259 51.2625 92.725C49.3625 92.725 50.725 90.8375 48.975 90.4875C49.1625 90.1375 49.5 89.4625 49.6375 89.125C49.7308 88.9206 49.7454 88.689 49.6785 88.4744C49.6116 88.2599 49.468 88.0777 49.275 87.9625C48.975 87.7125 47.65 86.925 47.65 86.2C48.9 84.725 50.5625 83.4125 50.55 81.3375C50.325 78.8375 48.25 78.6 46.05 79.725C45.9875 76.9125 45.7875 66.9 45.8 65.225C50.2625 65.225 80.05 64.925 87.125 64.925C86.2875 67.1875 86.9 73.2875 87.2 74.925L81.825 78.675C81.7986 78.7065 81.7841 78.7464 81.7841 78.7875C81.7841 78.8287 81.7986 78.8685 81.825 78.9L83.225 82.5C82.1375 83.2 79.2 85.15 78.1125 85.8875V85.5625C78.0993 85.5196 78.0728 85.4819 78.0369 85.455C78.001 85.428 77.9574 85.4132 77.9125 85.4125L72.975 85.6125C72.9286 85.6125 72.8841 85.631 72.8513 85.6638C72.8185 85.6966 72.8 85.7411 72.8 85.7875L72.55 89.7875C70.6 91.1542 68.65 92.5292 66.7 93.9125L62.8125 91.65C62.7762 91.6236 62.7324 91.6094 62.6875 91.6094C62.6426 91.6094 62.5988 91.6236 62.5625 91.65L58.9125 96.25C58.8841 96.2855 58.8686 96.3296 58.8686 96.375C58.8686 96.4205 58.8841 96.4645 58.9125 96.5L60.55 98.25C59 99.3625 57.2375 100.6 55.4375 102.075C53.2393 101.602 50.9985 101.355 48.75 101.338C48.7475 100.94 48.6275 100.553 48.4051 100.223C48.1826 99.8941 47.8677 99.638 47.5 99.4875C47.2054 99.4492 46.9071 99.4492 46.6125 99.4875C48.6 98 48.75 96.7125 49.0625 94.2125ZM41.3875 53.75C45.5 53.65 89.725 52.975 92.95 52.9125C92.3377 53.6826 91.8175 54.5216 91.4 55.4125L85.3375 54.25C85.2945 54.2409 85.2497 54.2472 85.2109 54.2677C85.172 54.2883 85.1416 54.3218 85.125 54.3625L83.875 57.325C75.0625 57.325 50.4125 57.4625 48.875 57.825C45.0625 58.6125 44.7625 62.5 44.775 66.075C44.775 68.35 45.0375 77.5875 45.2375 80.1375C44.8087 80.4146 44.4178 80.7466 44.075 81.125C43.3011 80.2797 42.2674 79.7166 41.1375 79.525C41.325 76.25 41.3875 55.95 41.3875 53.75ZM82.5 60.8625L86.25 64.025C77.0375 64.025 49.525 64.2 45.8 64.3625C45.9625 61.475 46.9125 59.675 48.625 59.0125C49.875 58.525 76.0125 58.45 83.3 58.4875L82.35 60.6375C82.3423 60.687 82.3535 60.7375 82.3812 60.7792C82.409 60.8209 82.4514 60.8506 82.5 60.8625ZM48.3625 80C48.7224 80.0211 49.0618 80.1745 49.3156 80.4305C49.5694 80.6866 49.7196 81.0274 49.7375 81.3875C49.8625 82.55 48.0375 84.45 47.3125 85.1375C46.6833 83.8019 45.7854 82.6104 44.675 81.6375C45.6487 80.639 46.9688 80.0527 48.3625 80ZM33.5625 206.638C33.4125 206.85 33.1125 207.3 32.95 207.575C32.3625 207.513 31.5125 208.75 31.1875 209.25C29.9375 209.25 28.925 209.163 27.8 209.15C29.8625 205.4 34.2625 198.575 37.3 193.925C35.7625 198.163 34.5125 201.625 33.1625 206.038C33.125 206.163 33.1875 206.25 33.5625 206.638ZM33.4125 208.575C33.6398 208.14 33.8988 207.722 34.1875 207.325C35.575 208.58 37.0314 209.757 38.55 210.85C38.4 211.1 38.15 211.475 37.9875 211.7C37.0875 211.525 33.6625 210.713 33.4125 208.575ZM37.1 214.338C37.0422 214.339 36.9865 214.359 36.9406 214.394C36.8948 214.429 36.8612 214.478 36.8446 214.533C36.8279 214.589 36.8292 214.648 36.8481 214.703C36.8671 214.757 36.9027 214.804 36.95 214.838C37.5973 214.989 38.2669 215.018 38.925 214.925C39 215.125 39.0625 215.325 39.125 215.525C38.7638 215.699 38.3588 215.759 37.9625 215.7C37.8995 215.678 37.8305 215.683 37.7708 215.712C37.711 215.741 37.6653 215.793 37.6438 215.856C37.6222 215.919 37.6266 215.988 37.6559 216.048C37.6852 216.108 37.737 216.153 37.8 216.175C38.3032 216.277 38.8218 216.277 39.325 216.175C39.5016 216.756 39.6107 217.356 39.65 217.963C39.65 218.113 39.525 218.138 39.475 218.15C39.2 218.225 38.7375 217.9 38.225 217.463C36.0375 215.688 31.8125 212.213 31.55 211.788C31.2875 211.363 31.4 210.7 31.775 210.075C31.9 209.863 32.3 209.25 32.55 208.825C32.9125 209.738 34.1875 211.975 37.925 212.4C38.075 212.4 38.2 212.713 38.275 212.913C37.8325 212.986 37.3858 213.032 36.9375 213.05C36.8949 213.051 36.8531 213.061 36.8149 213.08C36.7768 213.099 36.7434 213.126 36.7171 213.16C36.6907 213.193 36.6722 213.232 36.6628 213.274C36.6533 213.315 36.6532 213.358 36.6625 213.4C36.6625 213.563 36.8875 213.663 37.625 213.663C37.9246 213.684 38.2254 213.684 38.525 213.663C38.5875 213.812 38.6625 214.013 38.7125 214.163C38.1789 214.253 37.6405 214.311 37.1 214.338ZM212.8 179.05C212.8 179.05 107.15 180.3 83.1375 180.875C83.0375 178.838 82.9125 177.125 82.7875 175.7C108.75 175.388 201.738 173.75 210.488 173.525C212.25 173.525 209.613 55.75 209.863 51.5C209.888 51.4245 209.896 51.344 209.884 51.265C209.873 51.1861 209.843 51.111 209.796 51.0462C209.75 50.9813 209.688 50.9285 209.617 50.8922C209.546 50.8559 209.467 50.8372 209.388 50.8375C202.65 50.8375 147.563 51.475 129.638 51.775C128.875 50.9152 127.954 50.2106 126.925 49.7L127.063 47.7125C146.575 47.125 208.513 45.5125 208.513 45.5125C211.513 45.5125 214.175 45.675 214.25 48.6625C214.25 49.7375 215.413 174.038 215.225 175.463C215.141 176.212 214.877 176.93 214.454 177.555C214.032 178.18 213.464 178.693 212.8 179.05ZM103.338 63.925C102.8 64.275 100.45 73.925 100.4 75.425C100.4 75.55 100.213 75.225 104.7 82.15C104.788 82.275 104.45 82.15 112.2 83.3C112.325 83.3 111.338 83.95 126.638 73.4625C127.428 77.0504 127.034 80.7981 125.513 84.1427C123.993 87.4873 121.428 90.2482 118.204 92.0108C114.98 93.7734 111.272 94.4425 107.635 93.9177C103.999 93.3928 100.631 91.7023 98.0375 89.1C98.0012 89.0736 97.9574 89.0594 97.9125 89.0594C97.8676 89.0594 97.8238 89.0736 97.7875 89.1C97.625 89.225 84.0375 99.5125 79.2375 103.163C80.3626 101.201 81.097 99.0406 81.4 96.8C81.5 96.5375 81.775 96.375 82 96.1875C83.0209 95.4166 83.7449 94.3174 84.05 93.075C84.2 92.2 84.05 90.9 83.175 90.7625C83.175 90.4125 83.2625 89.775 82.875 89.575C82.7794 89.5295 82.6747 89.5058 82.5688 89.5058C82.4628 89.5058 82.3582 89.5295 82.2625 89.575C82.2625 89.2 82.2625 88.8875 81.9625 88.775C80.925 88.4125 80.45 89.7 80.25 90.25C79.9051 91.151 79.4245 91.9941 78.825 92.75C78.4536 92.2715 78.0348 91.8318 77.575 91.4375C76.9625 91.0875 76.4625 91.575 76.425 92.2625C76.3 94.4 76.6125 94.8625 76.0375 95.3625C75.9125 95.475 64.675 104.413 63.5375 105.363C63.5158 105.001 63.4186 104.647 63.2523 104.325C63.0859 104.003 62.854 103.719 62.5715 103.492C62.289 103.265 61.9621 103.099 61.6118 103.006C61.2616 102.913 60.8956 102.894 60.5375 102.95C60.117 102.959 59.6983 103.01 59.2875 103.1C58.3625 102.788 57.4625 102.538 56.6 102.338C59.6375 100.263 90.425 78.6625 91.4375 77.975C91.4721 77.9564 91.4987 77.9258 91.5125 77.8891C91.5263 77.8523 91.5263 77.8118 91.5125 77.775C88.225 66.25 93.95 56.25 101.1 53.65C107.55 51.2875 114.038 54.9 115.813 56.0375C113.75 57.3375 105.85 62.3125 103.338 63.925ZM97.6 49.025C96.1893 49.7585 94.9197 50.7361 93.85 51.9125C89.1625 52.0375 42.7875 52.85 41.0875 52.8875C41.0117 52.8568 40.9295 52.8452 40.8482 52.8537C40.7668 52.8622 40.6888 52.8905 40.6209 52.9362C40.5531 52.9818 40.4974 53.0434 40.4589 53.1156C40.4204 53.1877 40.4002 53.2682 40.4 53.35C40.325 59.6875 40.225 76.5 40.3 79.5125C39.104 79.5272 37.9275 79.8181 36.8625 80.3625C36.775 76.0375 36.4375 52.6375 36.6125 51.875C36.6816 51.0992 37.0401 50.3779 37.6168 49.8544C38.1936 49.331 38.9462 49.0438 39.725 49.05C40.125 49.05 94.85 48.0375 97.5375 48L97.6 49.025ZM35.6375 82.0125C38.35 80.2875 41.25 79.5125 43.4625 81.85C40.725 84.075 34.85 89.0875 33.375 92.2875C32.6447 91.3001 32.1749 90.1447 32.0089 88.9279C31.8428 87.711 31.986 86.472 32.425 85.325C33.0915 83.8901 34.2236 82.7227 35.6375 82.0125ZM33.325 111.8C36.4625 122.2 46.85 134.55 52.1625 142.25C51.2073 142.734 50.4641 143.553 50.075 144.55C43.8089 135.456 38.0743 126.007 32.9 116.25C32.1097 114.951 31.488 113.556 31.05 112.1C30.7507 111.078 30.7646 109.99 31.09 108.976C31.4153 107.962 32.0371 107.069 32.875 106.413C32.1875 108.025 32.8625 110.263 33.325 111.8ZM31.6875 116.075V118.575C29.4375 120.45 26.4625 122.65 23.5125 124.938C23.7794 122.61 24.2777 120.316 25 118.088C26.1892 114.923 27.8772 111.969 30 109.338C29.525 111.763 30.4625 113.888 31.6875 116.075ZM34.4625 135.313C33.4567 129.493 32.8346 123.614 32.6 117.713C37.4387 126.944 42.8666 135.854 48.85 144.388C45.496 144.467 42.1623 143.846 39.0625 142.563C35.95 141.35 35 138.75 34.4625 135.313ZM41.25 181.9C40.525 184.725 39.7125 187.313 38.75 189.888C34.6875 195.675 27.225 207.925 26.4 209.438C26.3553 209.52 26.3322 209.612 26.3331 209.706C26.334 209.799 26.3588 209.891 26.4051 209.973C26.4514 210.054 26.5178 210.122 26.5978 210.171C26.6778 210.219 26.7689 210.247 26.8625 210.25H28.8125C29.4038 210.281 29.9962 210.281 30.5875 210.25C30.4784 210.438 30.3944 210.64 30.3375 210.85C30.318 211.379 30.4398 211.903 30.6903 212.368C30.9408 212.834 31.3109 213.225 31.7625 213.5C32.7875 214.35 37.0375 217.6 38.0125 218.363C38.9875 219.125 40.0375 219.238 40.4125 218.225C40.532 217.72 40.506 217.191 40.3375 216.7C40.1 215.763 39 212.825 38.75 212.238C38.9125 211.988 39.2 211.575 39.3625 211.288C39.95 211.6 40.5375 211.875 41.125 212.125C41.1656 212.138 41.2093 212.138 41.2498 212.124C41.2903 212.111 41.3254 212.085 41.35 212.05L42.7375 210.088C48.85 210.013 70.6 210.163 71.7625 210.163C71.9625 210.9 71.9375 211.025 72.0875 211.075C72.6363 211.252 73.1958 211.394 73.7625 211.5C73.7625 211.788 73.9125 212.45 73.975 212.75C73.55 212.913 73.6125 213.563 73.6625 214C73.95 216.725 74.2 217.263 74.4125 217.4C74.8875 217.725 82.6625 217.55 85.6625 216.725C85.7324 216.707 85.7955 216.669 85.8443 216.616C85.893 216.562 85.9254 216.496 85.9375 216.425C85.9467 216.177 85.8904 215.931 85.774 215.711C85.6577 215.492 85.4856 215.307 85.275 215.175C83.9713 214.076 82.6021 213.058 81.175 212.125V210.363L81.4375 210.213C106.75 209.963 214.05 209.038 224.975 208.963C225.059 208.978 225.146 208.97 225.225 208.938C225.305 208.906 225.373 208.852 225.423 208.782C225.473 208.713 225.502 208.631 225.507 208.545C225.512 208.46 225.492 208.375 225.45 208.3C223.388 204.813 211.875 184.85 211.4 184.063C211.34 183.967 211.25 183.893 211.144 183.852C211.038 183.812 210.922 183.807 210.813 183.838C193.963 183.975 105.913 185.088 83.3125 185.525C83.3125 184.175 83.25 182.925 83.2125 181.775C105.2 181.525 205.475 180.288 211.313 180.088C214.638 179.875 216.2 180.763 217.8 183.738C219.05 185.925 240.513 222.113 242.8 225.938H7.125C9.275 222.45 29.0375 193.075 33.15 187.188C34.2106 185.611 35.534 184.229 37.0625 183.1C38.2769 182.227 39.7573 181.802 41.25 181.9ZM9.7875 143.15C9.7875 139.063 12.8375 135.85 15.55 133.025C17.5875 130.888 28.3875 122.038 31.8 119.45C32.0268 125.614 32.7711 131.748 34.025 137.788C30.6601 140.563 27.1285 143.131 23.45 145.475C21.5871 146.709 19.5697 147.693 17.45 148.4C13.325 149.613 9.78751 147.638 9.72501 143.213L9.7875 143.15Z" fill="black"/>
</g>
</g>
</g>
</svg>
