<svg width="9" height="12" viewBox="0 0 9 12" fill="none" xmlns="http://www.w3.org/2000/svg">
<path id="Shape" d="M4.2507 8.12585e-06C1.91602 -0.00452071 0.019556 1.88459 0.0151755 4.21927C0.015019 4.27199 0 11.1329 0 11.1329L2.42291 11.1376L2.42886 8.04646C2.97612 8.30679 3.58798 8.45354 4.23427 8.45479C6.56895 8.45933 8.46542 6.57022 8.46981 4.23554C8.47449 1.90086 6.58538 0.00455329 4.2507 8.12585e-06ZM4.23771 6.75389C2.84251 6.75123 1.71358 5.61792 1.71623 4.22271C2.77226 4.22271 5.77216 4.23241 6.76905 4.23241C6.76623 5.62762 5.63292 6.75655 4.23771 6.75389Z" fill="#A6A7AC"/>
</svg>
